<svg width="40" height="40" fill="none" xmlns="http://www.w3.org/2000/svg">
    <path d="M34.357 0H5.643A5.643 5.643 0 0 0 0 5.643v28.714A5.643 5.643 0 0 0 5.643 40h28.714A5.643 5.643 0 0 0 40 34.357V5.643A5.643 5.643 0 0 0 34.357 0Z" fill="#000"/>
    <path d="M4.446 30.548v-9.451h2.697c3.2 0 4.971 1.6 4.971 4.451 0 3.429-1.931 5-5.028 5h-2.64ZM6.16 29.12h.994c1.903 0 3.143-1.023 3.143-3.486 0-2.049-1.24-3.114-3.271-3.114h-.857l-.009 6.6ZM14.46 20.463a.886.886 0 0 1 .968.937.897.897 0 0 1-.965.923.856.856 0 0 1-.952-.923.892.892 0 0 1 .949-.937Zm.82 10.086h-1.626V23.46l1.626-.071v7.16ZM19.229 29.166h1.714c1.528 0 2.177.605 2.177 1.757 0 1.357-1.126 2.451-3.714 2.451-2.032 0-2.969-.72-2.969-1.831A1.634 1.634 0 0 1 17.5 30v-.046a1.067 1.067 0 0 1-.571-.948 1.143 1.143 0 0 1 .794-1.069v-.043c-.649-.36-1.023-.965-1.023-1.885 0-1.729 1.166-2.666 2.969-2.666.37-.004.738.044 1.094.143h2.306v1.085H21.98v.043a1.715 1.715 0 0 1 .572 1.34c0 1.572-1.066 2.395-3.026 2.395-.302 0-.603-.04-.895-.117a.534.534 0 0 0-.3.448c-.008.314.24.486.898.486Zm.303 2.997c1.557 0 2.117-.389 2.117-.951 0-.418-.258-.649-.966-.663l-2.36-.072a.826.826 0 0 0-.392.749c0 .563.492.937 1.6.937Zm1.5-6.34c0-.857-.478-1.326-1.386-1.326-.806 0-1.383.463-1.383 1.429s.52 1.311 1.354 1.311c.895-.003 1.415-.42 1.415-1.414Z" fill="#fff"/>
    <path d="M24.991 20.463a.886.886 0 0 1 .966.937.897.897 0 0 1-.966.923.857.857 0 0 1-.948-.923.894.894 0 0 1 .948-.937Zm.823 10.085h-1.628V23.46l1.628-.072v7.16ZM27.874 30.548v-9.451h2.697c3.2 0 4.972 1.6 4.972 4.451 0 3.429-1.932 5-5.029 5h-2.64Zm1.715-1.428h.994c1.903 0 3.143-1.023 3.143-3.486 0-2.049-1.24-3.114-3.272-3.114h-.857l-.008 6.6Z" fill="#E17000"/>
</svg>
