<svg width="106" height="91" viewBox="0 0 106 91" fill="none" xmlns="http://www.w3.org/2000/svg">
<path d="M9.2818 1H96.7182C98.9147 1 101.021 1.87254 102.574 3.42568C104.127 4.97882 105 7.08532 105 9.28179V67.0132C105.001 68.1016 104.788 69.1795 104.372 70.1853C103.957 71.1912 103.347 72.1053 102.578 72.8753C101.808 73.6453 100.895 74.2562 99.8896 74.673C98.8843 75.0897 97.8066 75.3042 96.7182 75.3042H22.5809L10.3761 90.8291V75.3042H9.2818C8.19344 75.3042 7.11575 75.0897 6.11034 74.673C5.10495 74.2562 4.19156 73.6453 3.4224 72.8753C2.65324 72.1053 2.0434 71.1912 1.62775 70.1853C1.2121 69.1795 0.998779 68.1016 1 67.0132V9.28179C1 8.19421 1.21423 7.11728 1.63042 6.11248C2.04662 5.10769 2.65665 4.19471 3.42568 3.42568C4.19472 2.65664 5.10769 2.04661 6.11249 1.63041C7.11728 1.21422 8.19422 1 9.2818 1Z" fill="white"/>
<path d="M99.8896 74.673C100.895 74.2562 101.808 73.6453 102.578 72.8753C103.347 72.1053 103.957 71.1912 104.372 70.1853C104.788 69.1795 105.001 68.1016 105 67.0132V9.28179C105 7.08532 104.127 4.97882 102.574 3.42568C101.021 1.87254 98.9147 1 96.7182 1H16.6826H9.28181C8.19423 1 7.11728 1.21422 6.11249 1.63041C5.1077 2.04661 4.19473 2.65664 3.42569 3.42568C2.65666 4.19471 2.04663 5.10769 1.63043 6.11248C1.21423 7.11728 1.00001 8.19421 1.00001 9.28179V67.0132C0.998791 68.1016 1.2121 69.1795 1.62776 70.1853C2.04341 71.1912 2.65325 72.1053 3.42241 72.8753C4.19156 73.6453 5.10495 74.2562 6.11035 74.673C7.11575 75.0897 8.19345 75.3043 9.28181 75.3043H10.3761V87.9391C10.3761 88.8886 11.5755 89.3036 12.1623 88.5571L22.5809 75.3043H89.9481" stroke="#5616FF" stroke-width="1.5" stroke-linecap="round"/>
<path d="M81.4807 30.1675L54.6506 9.987C54.1716 9.63234 53.5913 9.44092 52.9952 9.44092C52.3992 9.44092 51.8189 9.63234 51.3398 9.987L24.5098 30.1675V64.12H81.4807V30.1675Z" fill="#EAE6FF" stroke="#5616FF" stroke-width="1.5"/>
<path d="M74.748 19.0571H29.8335V61.5975H74.748V19.0571Z" fill="white" stroke="#5616FF" stroke-width="1.5" stroke-linecap="round" stroke-linejoin="round"/>
<path d="M68.1539 41.7321H36.4271C36.3041 41.7321 36.1861 41.6832 36.0992 41.5963C36.0122 41.5093 35.9634 41.3914 35.9634 41.2684C35.9634 41.1454 36.0122 41.0275 36.0992 40.9405C36.1861 40.8535 36.3041 40.8047 36.4271 40.8047H68.1539C68.2768 40.8047 68.3948 40.8535 68.4817 40.9405C68.5687 41.0275 68.6176 41.1454 68.6176 41.2684C68.6152 41.3906 68.5656 41.5072 68.4791 41.5937C68.3927 41.6801 68.2761 41.7297 68.1539 41.7321Z" fill="#5616FF"/>
<path d="M65.9297 56.7277H44.6138C44.4624 56.7277 44.3172 56.6675 44.2102 56.5605C44.1031 56.4534 44.043 56.3082 44.043 56.1568C44.043 56.0054 44.1031 55.8602 44.2102 55.7531C44.3172 55.6461 44.4624 55.5859 44.6138 55.5859H65.9297C66.0811 55.5859 66.2263 55.6461 66.3334 55.7531C66.4404 55.8602 66.5006 56.0054 66.5006 56.1568C66.5006 56.3082 66.4404 56.4534 66.3334 56.5605C66.2263 56.6675 66.0811 56.7277 65.9297 56.7277Z" fill="#5616FF"/>
<path d="M68.1539 28.1178H36.4271C36.3041 28.1178 36.1861 28.069 36.0992 27.982C36.0122 27.8951 35.9634 27.7771 35.9634 27.6541C35.9634 27.5312 36.0122 27.4132 36.0992 27.3262C36.1861 27.2393 36.3041 27.1904 36.4271 27.1904H68.1539C68.2768 27.1904 68.3948 27.2393 68.4817 27.3262C68.5687 27.4132 68.6176 27.5312 68.6176 27.6541C68.6176 27.7771 68.5687 27.8951 68.4817 27.982C68.3948 28.069 68.2768 28.1178 68.1539 28.1178Z" fill="#5616FF"/>
<path d="M68.1539 32.653H36.4271C36.3041 32.653 36.1861 32.6041 36.0992 32.5172C36.0122 32.4302 35.9634 32.3123 35.9634 32.1893C35.9634 32.0663 36.0122 31.9484 36.0992 31.8614C36.1861 31.7744 36.3041 31.7256 36.4271 31.7256H68.1539C68.2761 31.728 68.3927 31.7776 68.4791 31.864C68.5656 31.9505 68.6152 32.0671 68.6176 32.1893C68.6176 32.3123 68.5687 32.4302 68.4817 32.5172C68.3948 32.6041 68.2768 32.653 68.1539 32.653Z" fill="#5616FF"/>
<path d="M68.1539 37.1969H36.4271C36.3041 37.1969 36.1861 37.1481 36.0992 37.0611C36.0122 36.9742 35.9634 36.8562 35.9634 36.7332C35.9634 36.6103 36.0122 36.4923 36.0992 36.4053C36.1861 36.3184 36.3041 36.2695 36.4271 36.2695H68.1539C68.2768 36.2695 68.3948 36.3184 68.4817 36.4053C68.5687 36.4923 68.6176 36.6103 68.6176 36.7332C68.6152 36.8555 68.5656 36.972 68.4791 37.0585C68.3927 37.145 68.2761 37.1946 68.1539 37.1969Z" fill="#5616FF"/>
<path d="M81.4812 30.167V66.6607H24.5195V30.167L53.0003 51.5902L81.4812 30.167Z" fill="white"/>
<path d="M81.4812 30.1675V64.6612C81.4812 65.7657 80.5857 66.6612 79.4812 66.6612H26.5195C25.415 66.6612 24.5195 65.7657 24.5195 64.6612V30.1675L53.0003 51.5907L81.4812 30.1675Z" fill="white" stroke="#5616FF" stroke-width="1.5" stroke-linejoin="round"/>
<path d="M81.9173 60.3355C88.499 60.3355 93.8345 54.9999 93.8345 48.4182C93.8345 41.8365 88.499 36.501 81.9173 36.501C75.3355 36.501 70 41.8365 70 48.4182C70 54.9999 75.3355 60.3355 81.9173 60.3355Z" fill="#5616FF"/>
<path d="M81.9173 60.3355C88.499 60.3355 93.8345 54.9999 93.8345 48.4182C93.8345 41.8365 88.499 36.501 81.9173 36.501C75.3355 36.501 70 41.8365 70 48.4182C70 54.9999 75.3355 60.3355 81.9173 60.3355Z" fill="#5616FF"/>
<path d="M18.0651 27.3942H17.9538L7.2886 24.8624C7.16561 24.8341 7.05891 24.7581 6.99195 24.6511C6.92499 24.5442 6.90326 24.415 6.93154 24.292C6.95983 24.169 7.03581 24.0623 7.14277 23.9954C7.24973 23.9284 7.37892 23.9067 7.5019 23.935L18.1671 26.4668C18.2267 26.4798 18.2831 26.5047 18.3329 26.54C18.3826 26.5753 18.4248 26.6203 18.4568 26.6722C18.4888 26.7241 18.5101 26.782 18.5192 26.8423C18.5284 26.9026 18.5254 26.9641 18.5103 27.0232C18.4926 27.128 18.438 27.223 18.3563 27.2911C18.2747 27.3591 18.1714 27.3957 18.0651 27.3942Z" fill="#5616FF"/>
<path d="M81.8795 53.162C84.2015 53.162 86.1995 51.326 86.1995 48.374C86.1995 45.458 84.5075 43.91 82.1135 43.91C79.7555 43.91 77.7935 45.782 77.7935 48.716C77.7935 51.776 79.4315 53.162 81.8795 53.162ZM79.9715 48.608C79.9715 46.844 80.8175 45.764 81.9875 45.764C83.2475 45.764 84.0215 46.61 84.0215 48.41C84.0215 50.264 83.1575 51.308 82.0055 51.308C80.7635 51.308 79.9715 50.588 79.9715 48.608Z" fill="white"/>
<path d="M20.9395 21.2731C20.8391 21.2738 20.7412 21.2411 20.6613 21.1803L10.2743 13.1397C10.2252 13.1032 10.184 13.0573 10.1531 13.0046C10.1223 12.9518 10.1023 12.8934 10.0945 12.8328C10.0867 12.7722 10.0912 12.7107 10.1078 12.6518C10.1243 12.593 10.1526 12.5381 10.1908 12.4905C10.2674 12.3956 10.3777 12.3339 10.4986 12.3183C10.6196 12.3028 10.7419 12.3345 10.84 12.407L21.227 20.4477C21.3017 20.5076 21.3561 20.5893 21.3825 20.6813C21.409 20.7734 21.4063 20.8714 21.3748 20.9619C21.3432 21.0524 21.2845 21.1309 21.2065 21.1866C21.1286 21.2423 21.0353 21.2725 20.9395 21.2731Z" fill="#5616FF"/>
<path d="M27.2368 14.7068C27.1429 14.7062 27.0513 14.6777 26.9737 14.6248C26.8961 14.572 26.8359 14.4972 26.8009 14.41L24.0744 6.99075C24.0347 6.87376 24.0414 6.74601 24.0932 6.63385C24.145 6.52168 24.2378 6.43366 24.3526 6.38793C24.4682 6.34617 24.5956 6.35202 24.7069 6.40419C24.8182 6.45636 24.9043 6.55059 24.9461 6.66616L27.6727 14.0855C27.6947 14.1426 27.7049 14.2036 27.7027 14.2648C27.7006 14.326 27.686 14.3861 27.6601 14.4415C27.6341 14.4969 27.5972 14.5466 27.5515 14.5874C27.5059 14.6282 27.4525 14.6593 27.3945 14.679C27.3441 14.6979 27.2907 14.7074 27.2368 14.7068Z" fill="#5616FF"/>
</svg>
