<svg width="24" height="24" viewBox="0 0 24 24" fill="none" xmlns="http://www.w3.org/2000/svg">
<path d="M21.2659 20.9991H2.73288C2.37562 20.9991 2.04551 20.8085 1.86688 20.4991C1.68825 20.1897 1.68825 19.8085 1.86688 19.4991L11.1329 3.49909C11.3117 3.1902 11.6415 3 11.9984 3C12.3553 3 12.6851 3.1902 12.8639 3.49909L22.1299 19.4991C22.3084 19.8083 22.3085 20.1893 22.1301 20.4986C21.9518 20.808 21.622 20.9987 21.2649 20.9991H21.2659ZM11.9984 5.00109L3.49988 19.4991H20.4999L11.9984 5.00109ZM12.7516 15.0001H11.2516V9.99909H12.7516V15.0001Z" fill="#D3762B"/>
<path d="M11.2566 16.4768H12.7566V18.0011H11.2566V16.4768Z" fill="#D3762B"/>
</svg>
