<svg xmlns="http://www.w3.org/2000/svg" fill="none" viewBox="0 0 166 32" aria-label="Logo GGD Contact">
  <path fill="#2700C0" d="M48.3 18.5h2.5v3.2h-1.9c-2.7 0-4.9-1.7-4.9-5.4 0-3.8 2.3-5.7 5.4-5.7 1.3 0 2.2 0 3.5.2l.2-2.4c-1.1-.2-2.1-.3-3.6-.3-4.8 0-8.5 2.7-8.5 8.5 0 5 3.2 7.6 7.8 7.6 1.7 0 3.2-.2 4.7-.5v-7.6h-5.2v2.4Zm15 0h2.3v3.2h-1.8c-2.7 0-4.9-1.7-4.9-5.4 0-3.8 2.3-5.7 5.4-5.7 1.3 0 2.2 0 3.4.2l.3-2.4c-1.1-.2-2.1-.3-3.6-.3-4.8 0-8.5 2.7-8.5 8.5 0 5 3.2 7.6 7.8 7.6 1.7 0 3.2-.2 4.7-.5v-7.6h-5.2v2.4ZM76 24c5.1 0 8.4-2.6 8.4-8.3 0-4.8-3-7.4-8.3-7.4h-4.5V24H76Zm-1.6-13.4H76c3.4 0 5.4 1.8 5.4 5.2 0 4.1-2 5.8-5.2 5.8h-1.7v-11Zm27 10.8c-1.2.3-2 .3-3.2.3-2.6 0-4.9-1.7-4.9-5.4 0-3.8 2.3-5.7 5-5.7 1.1 0 1.7 0 3 .2l.1-2.4c-1-.2-1.8-.3-3-.3-4.4 0-8 2.8-8 8.5 0 5 3.2 7.6 7.6 7.6 1.6 0 2.1-.1 3.5-.4v-2.4Zm12.7-3.5c0-4-2.3-6-5.6-6-3.2 0-6 2.5-6 6.4 0 3.9 2.4 6 5.7 6 3.1 0 5.9-2.5 5.9-6.4Zm-2.8 0c0 2.5-1.3 4-3 4-1.8 0-3-1.3-3-3.7 0-2.5 1.4-3.9 3-3.9 1.8 0 3 1.2 3 3.6Zm12.3 6.1h2.7v-7.8c0-2.7-1.5-4.2-4-4.2-1.3 0-2.2.3-3.2 1v-1l-2.7.2V24h2.7v-9c.9-.4 1.5-.5 2.4-.5 1.4 0 2.1.7 2.1 2.2V24Zm4.6-9.8h1.4v6c0 2.7 1.5 4 3.7 4 1 0 1.5-.1 2.4-.3v-2.3l-1.6.2c-1 0-1.7-.6-1.7-2v-5.6h3v-2h-3V9.6l-2.8.3V12h-1.4v2.1Zm18 2c0-2.7-1.6-4.2-4.8-4.2-1.5 0-2.8.3-4.3.9l.4 2.3c1.3-.6 2.3-.8 3.4-.8 1.9 0 2.7.8 2.7 2v.7H142c-3.7 0-5.4 1.5-5.4 3.7 0 2 1.4 3.3 3.8 3.3 1.4 0 2.4-.2 3.4-.9v.8h2.5v-7.8Zm-6.9 4.4c0-.9.8-1.5 2.7-1.5h1.6v2.3a5 5 0 0 1-2.5.6c-1.1 0-1.8-.5-1.8-1.4Zm17.4-8.4a9 9 0 0 0-2.5-.2c-3.1 0-5.8 2.3-5.8 6.2 0 4.1 2.3 6 5.7 6 1 0 1.8-.2 2.6-.4v-2.3c-.8.2-1.5.3-2.3.3-1.8 0-3.2-1.1-3.2-3.7 0-2.3 1.3-3.6 3.2-3.6.7 0 1.3 0 2 .2l.3-2.5Zm1 2h1.4v6c0 2.7 1.5 4 3.7 4 1 0 1.5-.1 2.3-.3v-2.3l-1.5.2c-1 0-1.8-.6-1.8-2v-5.6h3v-2h-3V9.6l-2.7.3V12h-1.4v2.1Z"/>
  <rect width="32" height="32" fill="#5616FF" rx="8"/>
  <g clip-path="url(#logo_a)">
    <rect width="32" height="32" fill="#5616FF" rx="8"/>
    <path fill="#9688F7" d="M21.2 3.4a10.7 10.7 0 1 1-21.4 0 10.7 10.7 0 0 1 21.4 0Z"/>
    <path fill="#C0B8FA" d="M16.7 3.4a6.2 6.2 0 1 1-12.5 0 6.2 6.2 0 0 1 12.5 0Z"/>
    <path fill="#EAE7FD" d="M13.1 3.4a2.7 2.7 0 1 1-5.4 0 2.7 2.7 0 0 1 5.4 0Z"/>
    <path fill="#fff" d="M28 18.7 26 13.5c-.1-.6-.7-1.2-1.3-1.2a1.3 1.3 0 0 0-1.2 1.7l.3 1c0 .2 0 .4-.2.5-.2 0-.4 0-.5-.3l-.7-2a1.3 1.3 0 0 0-2.5.4v.4a1237 1237 0 0 0 .8 2c0 .3 0 .5-.2.6-.2 0-.5 0-.6-.3v-.1l-.7-2.2-.3-.7a1.3 1.3 0 1 0-2.4.8 1788.4 1788.4 0 0 0 1 3c0 .2 0 .5-.2.5-.2.1-.4 0-.5-.2l-.1-.3L13.5 8c-.2-.6-.6-1-1.2-1a1 1 0 0 0-.4 0c-.8.3-1 1-.7 2l2.9 8.3 1.5 4.4.1.3v.4c-.2.1-.3.1-.4 0H15c-.8-.5-1.5-.7-2.2-.7-.8 0-1.6.5-1.9 1v.2c0 .2.2.3.2.3l8.4 4.8c1 .6 2.2.9 3.2.9.9 0 1.7-.2 2.5-.6 2.1-1 3.3-3 3.4-5.7a11 11 0 0 0-.8-3.8Z"/>
  </g>
  <defs>
    <clipPath id="logo_a">
      <rect width="32" height="32" fill="#fff" rx="8"/>
    </clipPath>
  </defs>
</svg>
