<svg width="104" height="88" viewBox="0 0 104 88" fill="none" xmlns="http://www.w3.org/2000/svg">
<path d="M9.1066 0.992188H94.8933C97.0483 0.992187 99.115 1.83736 100.639 3.34177C102.163 4.84619 103.019 6.88662 103.019 9.01418V64.9346C103.02 65.9888 102.811 67.0329 102.403 68.0072C101.995 68.9815 101.397 69.8669 100.642 70.6128C99.8875 71.3586 98.9913 71.9503 98.0049 72.354C97.0184 72.7577 95.9611 72.9655 94.8933 72.9655H22.1547L11.9626 85.7652C11.373 86.5055 10.1803 86.0887 10.1803 85.1422V72.9655H9.1066C8.03877 72.9655 6.98141 72.7577 5.99498 72.354C5.00855 71.9503 4.1124 71.3586 3.35775 70.6128C2.6031 69.8669 2.00477 68.9815 1.59695 68.0072C1.18915 67.0329 0.979858 65.9888 0.981056 64.9346V9.01418C0.981056 7.96072 1.19124 6.91757 1.59959 5.94429C2.00793 4.97102 2.60645 4.08668 3.36097 3.34177C4.11549 2.59686 5.01125 2.00597 5.99708 1.60283C6.98292 1.19968 8.03954 0.992188 9.1066 0.992188Z" fill="white"/>
<path d="M96.2879 72.9655C98.191 72.9655 99.8875 71.3587 100.642 70.6128C101.397 69.8669 101.995 68.9815 102.403 68.0072C102.811 67.0329 103.02 65.9888 103.019 64.9346V9.01418C103.019 6.88662 102.163 4.84619 100.639 3.34177C99.115 1.83736 97.0483 0.992187 94.8933 0.992188H16.3677H9.1066C8.03954 0.992188 6.98292 1.19968 5.99708 1.60283C5.01125 2.00597 4.1155 2.59686 3.36098 3.34177C2.60645 4.08669 2.00794 4.97102 1.59959 5.94429C1.19125 6.91757 0.981063 7.96072 0.981063 9.01418V64.9346C0.979867 65.9888 1.18915 67.0329 1.59697 68.0072C2.00478 68.9815 2.60311 69.8669 3.35776 70.6128C4.1124 71.3587 5.00856 71.9504 5.99499 72.3541C6.98141 72.7578 8.03878 72.9655 9.1066 72.9655H10.1803V85.1423C10.1803 86.0887 11.373 86.5055 11.9626 85.7652L22.1548 72.9655H96.1509" stroke="#5616FF" stroke-width="1.5" stroke-linecap="round" fill="white" />
<path d="M79.9436 29.2404L53.6198 9.69301C53.1498 9.34948 52.5804 9.16406 51.9956 9.16406C51.4108 9.16406 50.8414 9.34948 50.3714 9.69301L24.0476 29.2404V62.1279H79.9436V29.2404Z" fill="#EAE6FF" stroke="#5616FF" stroke-width="1.5"/>
<path d="M73.3376 18.4766H29.2705V59.6825H73.3376V18.4766Z" fill="white" stroke="#5616FF" stroke-width="1.5" stroke-linecap="round" stroke-linejoin="round"/>
<path d="M66.8683 40.4452H35.7401C35.6195 40.4452 35.5037 40.3979 35.4184 40.3136C35.3331 40.2294 35.2852 40.1152 35.2852 39.996C35.2852 39.8769 35.3331 39.7627 35.4184 39.6784C35.5037 39.5942 35.6195 39.5469 35.7401 39.5469H66.8683C66.9889 39.5469 67.1046 39.5942 67.19 39.6784C67.2753 39.7627 67.3232 39.8769 67.3232 39.996C67.3209 40.1144 67.2722 40.2274 67.1874 40.3111C67.1026 40.3948 66.9882 40.4429 66.8683 40.4452Z" fill="#5616FF"/>
<path d="M64.6857 54.9653H43.772C43.6235 54.9653 43.481 54.907 43.376 54.8033C43.2709 54.6996 43.2119 54.559 43.2119 54.4123C43.2119 54.2657 43.2709 54.125 43.376 54.0213C43.481 53.9176 43.6235 53.8594 43.772 53.8594H64.6857C64.8343 53.8594 64.9767 53.9176 65.0818 54.0213C65.1868 54.125 65.2458 54.2657 65.2458 54.4123C65.2458 54.559 65.1868 54.6996 65.0818 54.8033C64.9767 54.907 64.8343 54.9653 64.6857 54.9653Z" fill="#5616FF"/>
<path d="M66.8683 27.2577H35.7401C35.6195 27.2577 35.5037 27.2104 35.4184 27.1261C35.3331 27.0419 35.2852 26.9277 35.2852 26.8085C35.2852 26.6894 35.3331 26.5752 35.4184 26.4909C35.5037 26.4067 35.6195 26.3594 35.7401 26.3594H66.8683C66.9889 26.3594 67.1046 26.4067 67.19 26.4909C67.2753 26.5752 67.3232 26.6894 67.3232 26.8085C67.3232 26.9277 67.2753 27.0419 67.19 27.1261C67.1046 27.2104 66.9889 27.2577 66.8683 27.2577Z" fill="#5616FF"/>
<path d="M66.8683 31.6483H35.7401C35.6195 31.6483 35.5037 31.601 35.4184 31.5168C35.3331 31.4325 35.2852 31.3183 35.2852 31.1992C35.2852 31.08 35.3331 30.9658 35.4184 30.8816C35.5037 30.7973 35.6195 30.75 35.7401 30.75H66.8683C66.9882 30.7523 67.1026 30.8004 67.1874 30.8841C67.2722 30.9678 67.3209 31.0808 67.3232 31.1992C67.3232 31.3183 67.2753 31.4325 67.19 31.5168C67.1046 31.601 66.9889 31.6483 66.8683 31.6483Z" fill="#5616FF"/>
<path d="M66.8683 36.0468H35.7401C35.6195 36.0468 35.5037 35.9994 35.4184 35.9152C35.3331 35.831 35.2852 35.7167 35.2852 35.5976C35.2852 35.4785 35.3331 35.3642 35.4184 35.28C35.5037 35.1958 35.6195 35.1484 35.7401 35.1484H66.8683C66.9889 35.1484 67.1046 35.1958 67.19 35.28C67.2753 35.3642 67.3232 35.4785 67.3232 35.5976C67.3209 35.716 67.2722 35.8289 67.1874 35.9127C67.1026 35.9964 66.9882 36.0445 66.8683 36.0468Z" fill="#5616FF"/>
<path d="M79.9438 29.2422V64.5911H24.0569V29.2422L52.0003 49.9934L79.9438 29.2422Z" fill="white"/>
<path d="M79.9438 29.2422V62.5911C79.9438 63.6956 79.0483 64.5911 77.9438 64.5911H26.0569C24.9523 64.5911 24.0569 63.6956 24.0569 62.5911V29.2422L52.0003 49.9934L79.9438 29.2422Z" fill="white" stroke="#5616FF" stroke-width="1.5" stroke-linejoin="round"/>
<path d="M17.7242 26.5578H17.615L7.15102 24.1054C7.03035 24.078 6.92566 24.0044 6.85996 23.9007C6.79427 23.7971 6.77295 23.672 6.8007 23.5529C6.82845 23.4338 6.903 23.3304 7.00794 23.2655C7.11289 23.2007 7.23963 23.1796 7.36029 23.207L17.8243 25.6594C17.8828 25.6721 17.9381 25.6962 17.9869 25.7304C18.0357 25.7646 18.0771 25.8081 18.1085 25.8584C18.1399 25.9087 18.1608 25.9647 18.1698 26.0231C18.1788 26.0816 18.1758 26.1412 18.161 26.1984C18.1436 26.2999 18.09 26.392 18.0099 26.4579C17.9298 26.5238 17.8285 26.5592 17.7242 26.5578Z" fill="#5616FF"/>
<path d="M20.5444 20.6229C20.4459 20.6236 20.3499 20.592 20.2714 20.5331L10.0804 12.7446C10.0323 12.7094 9.99183 12.6648 9.96153 12.6138C9.93123 12.5627 9.91168 12.5061 9.90403 12.4474C9.89639 12.3887 9.90081 12.3291 9.91704 12.2721C9.93327 12.2151 9.96097 12.162 9.99849 12.1158C10.0736 12.0239 10.1818 11.9641 10.3005 11.9491C10.4192 11.934 10.5392 11.9648 10.6354 12.035L20.8265 19.8234C20.8998 19.8815 20.9531 19.9605 20.979 20.0497C21.005 20.1389 21.0023 20.2339 20.9714 20.3215C20.9405 20.4091 20.8828 20.4852 20.8064 20.5391C20.7299 20.5931 20.6384 20.6224 20.5444 20.6229Z" fill="#5616FF"/>
<path d="M26.7231 14.2643C26.6309 14.2638 26.5411 14.2361 26.4649 14.1849C26.3887 14.1337 26.3297 14.0613 26.2954 13.9769L23.6203 6.79031C23.5813 6.67699 23.588 6.55325 23.6388 6.4446C23.6896 6.33596 23.7806 6.2507 23.8932 6.20641C24.0067 6.16595 24.1317 6.17162 24.2409 6.22215C24.3501 6.27269 24.4345 6.36396 24.4756 6.4759L27.1507 13.6625C27.1723 13.7178 27.1823 13.7769 27.1802 13.8362C27.178 13.8954 27.1638 13.9537 27.1383 14.0073C27.1128 14.061 27.0766 14.1091 27.0318 14.1486C26.9871 14.1882 26.9346 14.2184 26.8778 14.2374C26.8283 14.2557 26.7759 14.2649 26.7231 14.2643Z" fill="#5616FF"/>
</svg>
