<svg width="104" height="88" viewBox="0 0 104 88" fill="none" xmlns="http://www.w3.org/2000/svg">
<path d="M9.10635 0.992188H94.893C97.048 0.992187 99.1148 1.83736 100.639 3.34177C102.162 4.84619 103.019 6.88662 103.019 9.01418V64.9346C103.02 65.9888 102.81 67.0329 102.403 68.0072C101.995 68.9815 101.396 69.8669 100.642 70.6128C99.8872 71.3586 98.9911 71.9503 98.0046 72.354C97.0182 72.7577 95.9608 72.9655 94.893 72.9655H22.1545L11.9623 85.7652C11.3728 86.5055 10.18 86.0887 10.18 85.1422V72.9655H9.10635C8.03853 72.9655 6.98116 72.7577 5.99474 72.354C5.00831 71.9503 4.11215 71.3586 3.35751 70.6128C2.60286 69.8669 2.00452 68.9815 1.59671 68.0072C1.1889 67.0329 0.979614 65.9888 0.980812 64.9346V9.01418C0.980812 7.96072 1.19099 6.91757 1.59934 5.94429C2.00769 4.97102 2.6062 4.08668 3.36073 3.34177C4.11525 2.59686 5.011 2.00597 5.99683 1.60283C6.98267 1.19968 8.03929 0.992188 9.10635 0.992188Z" fill="white"/>
<path d="M96.2877 72.9655C98.1907 72.9655 99.8872 71.3586 100.642 70.6128C101.396 69.8669 101.995 68.9815 102.403 68.0072C102.81 67.0329 103.02 65.9888 103.019 64.9346V9.01418C103.019 6.88662 102.162 4.84619 100.639 3.34177C99.1148 1.83736 97.048 0.992187 94.893 0.992188H16.3675H9.10636C8.0393 0.992188 6.98267 1.19968 5.99684 1.60283C5.011 2.00597 4.11526 2.59686 3.36073 3.34177C2.60621 4.08669 2.00769 4.97102 1.59935 5.94429C1.191 6.91757 0.980819 7.96072 0.980819 9.01418V64.9346C0.979623 65.9888 1.18891 67.0329 1.59672 68.0072C2.00453 68.9815 2.60287 69.8669 3.35751 70.6128C4.11216 71.3586 5.00831 71.9503 5.99474 72.3541C6.98117 72.7578 8.03853 72.9655 9.10636 72.9655H10.18V85.1423C10.18 86.0887 11.3728 86.5055 11.9623 85.7652L22.1545 72.9655H96.1506" fill="white" stroke="#5616FF" stroke-width="1.5" stroke-linecap="round"/>
<path d="M79.9438 29.2404L53.62 9.69301C53.15 9.34948 52.5807 9.16406 51.9958 9.16406C51.411 9.16406 50.8417 9.34948 50.3716 9.69301L24.0479 29.2404V62.1279H79.9438V29.2404Z" fill="#EAE6FF" stroke="#5616FF" stroke-width="1.5"/>
<path d="M73.3376 18.4766H29.2705V59.6825H73.3376V18.4766Z" fill="white" stroke="#5616FF" stroke-width="1.5" stroke-linecap="round" stroke-linejoin="round"/>
<path d="M64.6857 54.9653H43.772C43.6235 54.9653 43.481 54.907 43.376 54.8033C43.2709 54.6996 43.2119 54.559 43.2119 54.4123C43.2119 54.2657 43.2709 54.125 43.376 54.0213C43.481 53.9176 43.6235 53.8594 43.772 53.8594H64.6857C64.8343 53.8594 64.9767 53.9176 65.0818 54.0213C65.1868 54.125 65.2458 54.2657 65.2458 54.4123C65.2458 54.559 65.1868 54.6996 65.0818 54.8033C64.9767 54.907 64.8343 54.9653 64.6857 54.9653Z" fill="#5616FF"/>
<path d="M79.9435 29.2422V64.5911H24.0566V29.2422L52.0001 49.9934L79.9435 29.2422Z" fill="white"/>
<path d="M79.9435 29.2422V62.5911C79.9435 63.6956 79.0481 64.5911 77.9435 64.5911H26.0566C24.9521 64.5911 24.0566 63.6956 24.0566 62.5911V29.2422L52.0001 49.9934L79.9435 29.2422Z" fill="white" stroke="#5616FF" stroke-width="1.5" stroke-linejoin="round"/>
<path d="M56.9711 38.0658H47.4801C47.2154 38.0658 47 37.8501 47 37.585V29.348C47 29.0829 47.2154 28.8672 47.4801 28.8672H56.9711C57.2359 28.8672 57.4512 29.0829 57.4512 29.348V37.585C57.4512 37.8502 57.2358 38.0658 56.9711 38.0658Z" fill="#5616FF"/>
<path d="M56.9711 38.0658H47.4801C47.2154 38.0658 47 37.8501 47 37.585V29.348C47 29.0829 47.2154 28.8672 47.4801 28.8672H56.9711C57.2359 28.8672 57.4512 29.0829 57.4512 29.348V37.585C57.4512 37.8502 57.2358 38.0658 56.9711 38.0658ZM47.4801 29.1876C47.392 29.1876 47.3201 29.2596 47.3201 29.3479V37.5848C47.3201 37.6731 47.392 37.745 47.4801 37.745H56.9711C57.0593 37.745 57.1311 37.6731 57.1311 37.5848V29.3479C57.1311 29.2596 57.0593 29.1876 56.9711 29.1876H47.4801Z" fill="#5616FF"/>
<path d="M56.4153 29.1899H54.4947V25.7251C54.4947 25.2829 54.1358 24.9236 53.6945 24.9236H50.756C50.3146 24.9236 49.9558 25.2831 49.9558 25.7251V29.1899H48.0352V25.7251C48.0352 24.2226 49.2558 23 50.756 23H53.6945C55.1946 23 56.4153 24.2225 56.4153 25.7251V29.1899Z" fill="#5616FF"/>
<path d="M56.4153 29.1899H54.4947V25.7251C54.4947 25.2829 54.1358 24.9236 53.6945 24.9236H50.756C50.3146 24.9236 49.9558 25.2831 49.9558 25.7251V29.1899H48.0352V25.7251C48.0352 24.2226 49.2558 23 50.756 23H53.6945C55.1946 23 56.4153 24.2225 56.4153 25.7251V29.1899ZM54.8148 28.8693H56.0952V25.7251C56.0952 24.3992 55.0183 23.3206 53.6944 23.3206H50.756C49.4321 23.3206 48.3552 24.3991 48.3552 25.7251V28.8693H49.6357V25.7251C49.6357 25.1064 50.1383 24.603 50.756 24.603H53.6944C54.3121 24.603 54.8147 25.1064 54.8147 25.7251L54.8148 28.8693Z" fill="#5616FF"/>
<path d="M53.0676 35.279H51.3839C51.3377 35.279 51.2939 35.259 51.2635 35.2242C51.2328 35.1895 51.2191 35.1432 51.2254 35.0975L51.4633 33.3214C51.2348 33.1085 51.1055 32.8157 51.1055 32.5049C51.1055 31.8862 51.6081 31.3828 52.2258 31.3828C52.8435 31.3828 53.3461 31.8862 53.3461 32.5049C53.3461 32.8157 53.2166 33.1085 52.9881 33.3214L53.226 35.0975C53.2323 35.1432 53.2185 35.1896 53.188 35.2242C53.1576 35.259 53.1139 35.279 53.0676 35.279Z" fill="white"/>
<path d="M53.0676 35.279H51.3839C51.3377 35.279 51.2939 35.259 51.2635 35.2242C51.2328 35.1895 51.2191 35.1432 51.2254 35.0975L51.4633 33.3214C51.2348 33.1085 51.1055 32.8157 51.1055 32.5049C51.1055 31.8862 51.6081 31.3828 52.2258 31.3828C52.8435 31.3828 53.3461 31.8862 53.3461 32.5049C53.3461 32.8157 53.2166 33.1085 52.9881 33.3214L53.226 35.0975C53.2323 35.1432 53.2185 35.1896 53.188 35.2242C53.1576 35.259 53.1139 35.279 53.0675 35.279H53.0676ZM51.5669 34.9585H52.8848L52.6598 33.2779C52.6523 33.2219 52.6748 33.1658 52.7189 33.1308C52.9141 32.9764 53.026 32.7481 53.026 32.5049C53.026 32.0627 52.6671 31.7034 52.2258 31.7034C51.7844 31.7034 51.4256 32.0628 51.4256 32.5049C51.4256 32.7481 51.5375 32.9764 51.7329 33.1307C51.7771 33.1658 51.7995 33.2218 51.792 33.2778L51.5669 34.9585Z" fill="#5616FF"/>
<rect x="48.0352" y="28.3672" width="8.38018" height="0.5" fill="white"/>
</svg>
