<?xml version="1.0" encoding="UTF-8"?>
<svg width="126px" height="109px" viewBox="0 0 126 109" version="1.1" xmlns="http://www.w3.org/2000/svg" xmlns:xlink="http://www.w3.org/1999/xlink">
    <title>new-message</title>
    <g id="Page-1" stroke="none" stroke-width="1" fill="none" fill-rule="evenodd">
        <g id="new-message" transform="translate(1.000000, 1.000000)">
            <path d="M9.8745,0 L114.126,0 C116.744,0 119.256,1.04034 121.108,2.89216 C122.96,4.74397 124.000004,7.25558 124.000004,9.8744 L124.000004,78.708 C124.000004,80.0057 123.747,81.2909 123.252,82.4902 C122.756,83.6895 122.029,84.7794 121.112,85.6975 C120.195,86.6156 119.106,87.3439 117.907,87.8408 C116.708,88.3378 115.423,88.5935 114.126,88.5935 L25.7311,88.5935 L11.1792,107.104 L11.1792,88.5935 L9.8745,88.5935 C8.5768,88.5935 7.29185,88.3378 6.09311,87.8408 C4.89437,87.3439 3.80532,86.6156 2.88825,85.6975 C1.97118,84.7794 1.24406,83.6895 0.74847,82.4902 C0.25288,81.2909 -0.00145,80.0057 3.74961335e-06,78.708 L3.74961335e-06,9.8744 C3.74961335e-06,8.57771 0.25542,7.29368 0.75166,6.09565 C1.2479,4.89763 1.97524,3.80908 2.89217,2.89216 C3.80909,1.97523 4.89764,1.24788 6.09566,0.75165 C7.29368,0.25541 8.57773,0 9.8745,0 Z" id="Path" fill="#FFFFFF" fill-rule="nonzero"></path>
            <path d="M117.907,87.8408 C119.106,87.3439 120.195,86.6156 121.112,85.6975 C122.029,84.7794 122.756,83.6895 123.252,82.4902 C123.747,81.2909 124.000004,80.0057 124.000004,78.708 L124.000004,9.8744 C124.000004,7.25558 122.96,4.74397 121.108,2.89216 C119.256,1.04034 116.744,0 114.126,0 L18.6985,0 L9.8745,0 C8.57773,0 7.29368,0.25541 6.09566,0.75165 C4.89763,1.24788 3.80909,1.97523 2.89217,2.89216 C1.97524,3.80908 1.2479,4.89763 0.75166,6.09565 C0.25543,7.29368 3.78386424e-06,8.57771 3.78386424e-06,9.8744 L3.78386424e-06,78.708 C-0.001446,80.0057 0.25289,81.2909 0.74847,82.4902 C1.24406,83.6895 1.97118,84.7794 2.88825,85.6975 C3.80532,86.6156 4.89437,87.3439 6.09311,87.8408 C7.29185,88.3378 8.5768,88.5935 9.8745,88.5935 L11.1792,88.5935 L11.1792,104.214 C11.1792,105.163 12.3786,105.578 12.9654,104.832 L25.7311,88.5935 L106.054,88.5935" id="Path" stroke="#5616FF" stroke-width="1.5" stroke-linecap="round"></path>
            <path d="M95.9579,34.7769 L63.9682,10.7155 C63.397,10.2927 62.7051,10.0645 61.9944,10.0645 C61.2838,10.0645 60.5919,10.2927 60.0207,10.7155 L28.031,34.7769 L28.031,75.2588 L95.9579,75.2588 L95.9579,34.7769 Z" id="Path" stroke="#5616FF" stroke-width="1.5" fill="#EAE6FF" fill-rule="nonzero"></path>
            <polygon id="Path" stroke="#5616FF" stroke-width="1.5" fill="#FFFFFF" fill-rule="nonzero" stroke-linecap="round" stroke-linejoin="round" points="87.9304 21.5293 34.3784 21.5293 34.3784 72.2505 87.9304 72.2505"></polygon>
            <path d="M80.0682,48.5652 L42.2401,48.5652 C42.0935,48.5652 41.9529,48.507 41.8492,48.4033 C41.7455,48.2996 41.6873,48.159 41.6873,48.0124 C41.6873,47.8657 41.7455,47.7251 41.8492,47.6214 C41.9529,47.5177 42.0935,47.4595 42.2401,47.4595 L80.0682,47.4595 C80.2148,47.4595 80.3555,47.5177 80.4592,47.6214 C80.5628,47.7251 80.6211,47.8657 80.6211,48.0124 C80.6183,48.1581 80.5591,48.2971 80.456,48.4002 C80.3529,48.5032 80.214,48.5624 80.0682,48.5652 Z" id="Path" fill="#5616FF" fill-rule="nonzero"></path>
            <path d="M62.8847,53.9725 L42.2401,53.9725 C42.0935,53.9725 41.9529,53.9142 41.8492,53.8105 C41.7455,53.7068 41.6873,53.5662 41.6873,53.4196 C41.6873,53.2729 41.7455,53.1323 41.8492,53.0286 C41.9529,52.9249 42.0935,52.8667 42.2401,52.8667 L62.8847,52.8667 C63.0313,52.8667 63.1719,52.9249 63.2756,53.0286 C63.3793,53.1323 63.4376,53.2729 63.4376,53.4196 C63.4376,53.5662 63.3793,53.7068 63.2756,53.8105 C63.1719,53.9142 63.0313,53.9725 62.8847,53.9725 Z" id="Path" fill="#5616FF" fill-rule="nonzero"></path>
            <path d="M80.0682,32.3328 L42.2401,32.3328 C42.0935,32.3328 41.9529,32.2746 41.8492,32.1709 C41.7455,32.0672 41.6873,31.9266 41.6873,31.7799 C41.6873,31.6333 41.7455,31.4927 41.8492,31.389 C41.9529,31.2853 42.0935,31.2271 42.2401,31.2271 L80.0682,31.2271 C80.2148,31.2271 80.3555,31.2853 80.4592,31.389 C80.5628,31.4927 80.6211,31.6333 80.6211,31.7799 C80.6211,31.9266 80.5628,32.0672 80.4592,32.1709 C80.3555,32.2746 80.2148,32.3328 80.0682,32.3328 Z" id="Path" fill="#5616FF" fill-rule="nonzero"></path>
            <path d="M80.0682,37.74 L42.2401,37.74 C42.0935,37.74 41.9529,37.6818 41.8492,37.5781 C41.7455,37.4744 41.6873,37.3338 41.6873,37.1872 C41.6873,37.0405 41.7455,36.8999 41.8492,36.7962 C41.9529,36.6925 42.0935,36.6343 42.2401,36.6343 L80.0682,36.6343 C80.214,36.6371 80.3529,36.6963 80.456,36.7994 C80.5591,36.9024 80.6183,37.0414 80.6211,37.1872 C80.6211,37.3338 80.5628,37.4744 80.4592,37.5781 C80.3555,37.6818 80.2148,37.74 80.0682,37.74 Z" id="Path" fill="#5616FF" fill-rule="nonzero"></path>
            <path d="M80.0682,43.158 L42.2401,43.158 C42.0935,43.158 41.9529,43.0998 41.8492,42.9961 C41.7455,42.8924 41.6873,42.7518 41.6873,42.6051 C41.6873,42.4585 41.7455,42.3179 41.8492,42.2142 C41.9529,42.1105 42.0935,42.0522 42.2401,42.0522 L80.0682,42.0522 C80.2148,42.0522 80.3555,42.1105 80.4592,42.2142 C80.5628,42.3179 80.6211,42.4585 80.6211,42.6051 C80.6183,42.7509 80.5591,42.8899 80.456,42.9929 C80.3529,43.096 80.214,43.1552 80.0682,43.158 Z" id="Path" fill="#5616FF" fill-rule="nonzero"></path>
            <polygon id="Path" fill="#FFFFFF" fill-rule="nonzero" points="95.9583 34.7759 95.9583 78.2876 28.0425 78.2876 28.0425 34.7759 62.0004 60.319"></polygon>
            <path d="M95.9583,34.7764 L95.9583,76.2881 C95.9583,77.3926 95.0628,78.2881 93.9583,78.2881 L30.0425,78.2881 C28.9379,78.2881 28.0425,77.3926 28.0425,76.2881 L28.0425,34.7764 L62.0004,60.3194 L95.9583,34.7764 Z" id="Path" stroke="#5616FF" stroke-width="1.5" fill="#FFFFFF" fill-rule="nonzero" stroke-linejoin="round"></path>
            <path d="M95.9583,70.7462 C103.806,70.7462 110.167,64.3846 110.167,56.5371 C110.167,48.6897 103.806,42.3281 95.9583,42.3281 C88.1109,42.3281 81.7493,48.6897 81.7493,56.5371 C81.7493,64.3846 88.1109,70.7462 95.9583,70.7462 Z" id="Path" fill="#5616FF" fill-rule="nonzero"></path>
            <path d="M95.9583,70.7462 C103.806,70.7462 110.167,64.3846 110.167,56.5371 C110.167,48.6897 103.806,42.3281 95.9583,42.3281 C88.1109,42.3281 81.7493,48.6897 81.7493,56.5371 C81.7493,64.3846 88.1109,70.7462 95.9583,70.7462 Z" id="Path" stroke="#5616FF"></path>
            <polygon id="Path" fill="#FFFFFF" fill-rule="nonzero" points="95.9582 52.8441 91.5352 55.0556 91.5352 51.6277 96.1683 49.2725 99.353 49.2725 99.353 62.6743 95.9029 62.6743"></polygon>
            <path d="M20.347,31.47 L20.2143,31.47 L7.49802,28.4513 C7.35139,28.4175 7.22416,28.3269 7.14432,28.1994 C7.06448,28.0719 7.03857,27.9178 7.0723,27.7712 C7.10602,27.6246 7.19661,27.4973 7.32415,27.4175 C7.45168,27.3377 7.60571,27.3118 7.75234,27.3455 L20.4686,30.3642 C20.5396,30.3798 20.6068,30.4095 20.6662,30.4515 C20.7255,30.4936 20.7758,30.5472 20.814,30.6091 C20.8521,30.671 20.8775,30.74 20.8884,30.8119 C20.8994,30.8838 20.8957,30.9572 20.8777,31.0277 C20.8566,31.1526 20.7915,31.2659 20.6942,31.347 C20.5968,31.4281 20.4737,31.4717 20.347,31.47 Z" id="Path" fill="#5616FF" fill-rule="nonzero"></path>
            <path d="M23.7741,24.1717121 C23.6543,24.1725 23.5377,24.1336 23.4424,24.0611 L11.0578,14.4741 C10.9994,14.4307 10.9502,14.3759 10.9134,14.3131 C10.8766,14.2502 10.8528,14.1805 10.8435,14.1083 C10.8342,14.036 10.8396,13.9626 10.8593,13.8925 C10.8791,13.8224 10.9127,13.7569 10.9583,13.7001 C11.0496,13.5869 11.1811,13.5134 11.3253,13.4948 C11.4696,13.4763 11.6154,13.5142 11.7324,13.6006 L24.1169,23.1875 C24.206,23.259 24.2708,23.3563 24.3023,23.4661 C24.3338,23.5759 24.3306,23.6928 24.293,23.8007 C24.2555,23.9085 24.1854,24.0021 24.0925,24.0686 C23.9995,24.135 23.8883,24.171 23.7741,24.1717121 Z" id="Path" fill="#5616FF" fill-rule="nonzero"></path>
            <path d="M31.2825,16.3427229 C31.1706,16.342 31.0613,16.3079 30.9688,16.2449 C30.8762,16.1819 30.8045,16.0927 30.7628,15.9888 L27.5119,7.14275 C27.4646,7.00325 27.4726,6.85094 27.5344,6.7172 C27.5961,6.58347 27.7068,6.47852 27.8436,6.424 C27.9814,6.37421 28.1334,6.38118 28.2661,6.44339 C28.3988,6.50559 28.5014,6.61793 28.5513,6.75573 L31.8022,15.6018 C31.8284,15.6699 31.8406,15.7427 31.838,15.8156 C31.8354,15.8886 31.8181,15.9602 31.7872,16.0263 C31.7562,16.0924 31.7121,16.1516 31.6577,16.2002 C31.6033,16.2489 31.5396,16.2861 31.4705,16.3095 C31.4104,16.3321 31.3467,16.3433 31.2825,16.3427229 Z" id="Path" fill="#5616FF" fill-rule="nonzero"></path>
        </g>
    </g>
</svg>