<svg width="106" height="91" viewBox="0 0 106 91" fill="none" xmlns="http://www.w3.org/2000/svg">
<path d="M9.2818 1H96.7182C98.9147 1 101.021 1.87254 102.574 3.42568C104.127 4.97882 105 7.08532 105 9.28179V67.0132C105.001 68.1016 104.788 69.1795 104.372 70.1853C103.957 71.1912 103.347 72.1053 102.578 72.8753C101.808 73.6453 100.895 74.2562 99.8896 74.673C98.8843 75.0897 97.8066 75.3042 96.7182 75.3042H22.5809L10.3761 90.8291V75.3042H9.2818C8.19344 75.3042 7.11575 75.0897 6.11034 74.673C5.10495 74.2562 4.19156 73.6453 3.4224 72.8753C2.65324 72.1053 2.0434 71.1912 1.62775 70.1853C1.2121 69.1795 0.998779 68.1016 1 67.0132V9.28179C1 8.19421 1.21423 7.11728 1.63042 6.11248C2.04662 5.10769 2.65665 4.19471 3.42568 3.42568C4.19472 2.65664 5.10769 2.04661 6.11249 1.63041C7.11728 1.21422 8.19422 1 9.2818 1Z" fill="white"/>
<path d="M99.8896 74.673C100.895 74.2562 101.808 73.6453 102.578 72.8753C103.347 72.1053 103.957 71.1912 104.372 70.1853C104.788 69.1795 105.001 68.1016 105 67.0132V9.28179C105 7.08532 104.127 4.97882 102.574 3.42568C101.021 1.87254 98.9147 1 96.7182 1H16.6826H9.28181C8.19423 1 7.11728 1.21422 6.11249 1.63041C5.1077 2.04661 4.19473 2.65664 3.42569 3.42568C2.65666 4.19471 2.04663 5.10769 1.63043 6.11248C1.21423 7.11728 1.00001 8.19421 1.00001 9.28179V67.0132C0.998791 68.1016 1.2121 69.1795 1.62776 70.1853C2.04341 71.1912 2.65325 72.1053 3.42241 72.8753C4.19156 73.6453 5.10495 74.2562 6.11035 74.673C7.11575 75.0897 8.19345 75.3043 9.28181 75.3043H10.3761V87.9391C10.3761 88.8886 11.5755 89.3036 12.1623 88.5571L22.5809 75.3043H89.9481" stroke="#5616FF" stroke-width="1.5" stroke-linecap="round"/>
<path d="M81.4807 30.168L54.6506 9.98749C54.1716 9.63283 53.5913 9.44141 52.9952 9.44141C52.3992 9.44141 51.8189 9.63283 51.3398 9.98749L24.5098 30.168V64.1205H81.4807V30.168Z" fill="#EAE6FF" stroke="#5616FF" stroke-width="1.5"/>
<path d="M74.7485 19.0566H29.834V61.597H74.7485V19.0566Z" fill="white" stroke="#5616FF" stroke-width="1.5" stroke-linecap="round" stroke-linejoin="round"/>
<path d="M68.1543 41.7321H36.4276C36.3046 41.7321 36.1866 41.6832 36.0997 41.5963C36.0127 41.5093 35.9639 41.3914 35.9639 41.2684C35.9639 41.1454 36.0127 41.0275 36.0997 40.9405C36.1866 40.8535 36.3046 40.8047 36.4276 40.8047H68.1543C68.2773 40.8047 68.3953 40.8535 68.4822 40.9405C68.5692 41.0275 68.618 41.1454 68.618 41.2684C68.6157 41.3906 68.5661 41.5072 68.4796 41.5937C68.3932 41.6801 68.2766 41.7297 68.1543 41.7321Z" fill="#5616FF"/>
<path d="M65.9297 56.7277H44.6138C44.4624 56.7277 44.3172 56.6675 44.2102 56.5605C44.1031 56.4534 44.043 56.3082 44.043 56.1568C44.043 56.0054 44.1031 55.8602 44.2102 55.7531C44.3172 55.6461 44.4624 55.5859 44.6138 55.5859H65.9297C66.0811 55.5859 66.2263 55.6461 66.3334 55.7531C66.4404 55.8602 66.5006 56.0054 66.5006 56.1568C66.5006 56.3082 66.4404 56.4534 66.3334 56.5605C66.2263 56.6675 66.0811 56.7277 65.9297 56.7277Z" fill="#5616FF"/>
<path d="M68.1543 28.1169H36.4276C36.3046 28.1169 36.1866 28.068 36.0997 27.9811C36.0127 27.8941 35.9639 27.7761 35.9639 27.6532C35.9639 27.5302 36.0127 27.4122 36.0997 27.3253C36.1866 27.2383 36.3046 27.1895 36.4276 27.1895H68.1543C68.2773 27.1895 68.3953 27.2383 68.4822 27.3253C68.5692 27.4122 68.618 27.5302 68.618 27.6532C68.618 27.7761 68.5692 27.8941 68.4822 27.9811C68.3953 28.068 68.2773 28.1169 68.1543 28.1169Z" fill="#5616FF"/>
<path d="M68.1543 32.652H36.4276C36.3046 32.652 36.1866 32.6032 36.0997 32.5162C36.0127 32.4292 35.9639 32.3113 35.9639 32.1883C35.9639 32.0653 36.0127 31.9474 36.0997 31.8604C36.1866 31.7735 36.3046 31.7246 36.4276 31.7246H68.1543C68.2766 31.727 68.3932 31.7766 68.4796 31.8631C68.5661 31.9495 68.6157 32.0661 68.618 32.1883C68.618 32.3113 68.5692 32.4292 68.4822 32.5162C68.3953 32.6032 68.2773 32.652 68.1543 32.652Z" fill="#5616FF"/>

</svg>
