<svg width="24" height="24" viewBox="0 0 24 24" fill="none" xmlns="http://www.w3.org/2000/svg">
<path d="M3 16H4H3ZM3 8L2 8L3 8ZM4 7L4 8L4 7ZM20 7V8V7ZM21 8H22V8L21 8ZM21 16H20H21ZM6 18C6.55229 18 7 17.5523 7 17C7 16.4477 6.55229 16 6 16V18ZM4 17V16H4L4 17ZM20 17V18V17ZM18 16C17.4477 16 17 16.4477 17 17C17 17.5523 17.4477 18 18 18V16ZM4 16L4 8L2 8L2 16H4ZM4 8L20 8V6L4 6L4 8ZM20 8V16H22V8H20ZM6 16H4V18H6V16ZM20 16H18V18H20V16ZM20 8L22 8C22 6.89543 21.1046 6 20 6V8ZM4 8V8L4 6C2.89543 6 2 6.89543 2 8L4 8ZM2 16C2 17.1046 2.89543 18 4 18L4 16H2ZM20 16L20 16V18C21.1046 18 22 17.1046 22 16H20Z" fill="#5616FF"/>
<path d="M17 21V20V21ZM7 21L7 22L7 21ZM6 20H5H6ZM6 16L5 16L6 16ZM7 15L7 16L7 15ZM17 15V16V15ZM18 16H19V16L18 16ZM18 20H17H18ZM17 20L7 20L7 22L17 22V20ZM7 20L7 16L5 16L5 20H7ZM7 16L17 16V14L7 14L7 16ZM17 16V20H19V16H17ZM17 16L19 16C19 14.8954 18.1046 14 17 14V16ZM7 16V16L7 14C5.89543 14 5 14.8954 5 16L7 16ZM7 20H5C5 21.1046 5.89543 22 7 22L7 20ZM17 22C18.1046 22 19 21.1046 19 20H17V20V22Z" fill="#5616FF"/>
<path d="M10 10C9.44772 10 9 10.4477 9 11C9 11.5523 9.44772 12 10 12V10ZM14 12C14.5523 12 15 11.5523 15 11C15 10.4477 14.5523 10 14 10V12ZM10 12H14V10H10V12Z" fill="#5616FF"/>
<path d="M17 7V6V7ZM7 7L7 8L7 7ZM6 6H5H6ZM6 4L7 4L6 4ZM7 3L7 4L7 3ZM17 3V4V3ZM18 4H19V4L18 4ZM18 6H17H18ZM17 6L7 6L7 8L17 8V6ZM7 6L7 4L5 4L5 6H7ZM7 4L17 4V2L7 2L7 4ZM17 4V6H19V4H17ZM17 4L19 4C19 2.89543 18.1046 2 17 2V4ZM7 4L7 2C5.89543 2 5 2.89543 5 4L7 4ZM7 6H5C5 7.10457 5.89543 8 7 8L7 6ZM17 8C18.1046 8 19 7.10457 19 6H17V8Z" fill="#5616FF"/>
</svg>
